<?xml version="1.0" encoding="utf-8"?>
<!-- Generator: Adobe Illustrator 21.0.0, SVG Export Plug-In . SVG Version: 6.00 Build 0)  -->
<svg version="1.1" id="Layer_1" xmlns="http://www.w3.org/2000/svg" xmlns:xlink="http://www.w3.org/1999/xlink" x="0px" y="0px"
	 viewBox="0 0 24 24" style="enable-background:new 0 0 24 24;" xml:space="preserve">
<style type="text/css">
	.st0{filter:url(#Adobe_OpacityMaskFilter);}
	.st1{fill:#FFFFFF;}
	.st2{mask:url(#mask-2);}
	.st3{fill:#0085BA;}
</style>
<title>icon/device/devices_24px_outlined</title>
<desc>Created with Sketch.</desc>
<g id="icon_x2F_device_x2F_devices_x5F_24px">
	<defs>
		<filter id="Adobe_OpacityMaskFilter" filterUnits="userSpaceOnUse" x="0" y="0" width="24" height="24">
			<feColorMatrix  type="matrix" values="1 0 0 0 0  0 1 0 0 0  0 0 1 0 0  0 0 0 1 0"/>
		</filter>
	</defs>
	<mask maskUnits="userSpaceOnUse" x="0" y="0" width="24" height="24" id="mask-2">
		<g class="st0">
			<path id="path-1" class="st1" d="M4,6h18V4H4C2.9,4,2,4.9,2,6v11H0v3h14v-3H4V6z M23,8h-6c-0.5,0-1,0.4-1,1v10c0,0.5,0.5,1,1,1h6
				c0.5,0,1-0.5,1-1V9C24,8.4,23.5,8,23,8z M22,17h-4v-7h4V17z"/>
		</g>
	</mask>
	<g id="_x2731_-_x2F_-Color-_x2F_-Icons-_x2F_-Black-_x2F_-Inactive" class="st2">
		<rect id="Rectangle" class="st3" width="24" height="24"/>
	</g>
</g>
</svg>
