<?xml version="1.0" encoding="utf-8"?>
<!-- Generator: Adobe Illustrator 21.0.0, SVG Export Plug-In . SVG Version: 6.00 Build 0)  -->
<svg version="1.1" id="Layer_1" xmlns="http://www.w3.org/2000/svg" xmlns:xlink="http://www.w3.org/1999/xlink" x="0px" y="0px"
	 viewBox="0 0 24 24" style="enable-background:new 0 0 24 24;" xml:space="preserve">
<style type="text/css">
	.st0{filter:url(#Adobe_OpacityMaskFilter);}
	.st1{fill:#FFFFFF;}
	.st2{mask:url(#mask-2);}
	.st3{fill:#0085BA;}
</style>
<title>icon/action/event_24px</title>
<desc>Created with Sketch.</desc>
<g id="icon_x2F_action_x2F_event_x5F_24px">
	<defs>
		<filter id="Adobe_OpacityMaskFilter" filterUnits="userSpaceOnUse" x="0" y="0" width="24" height="24">
			<feColorMatrix  type="matrix" values="1 0 0 0 0  0 1 0 0 0  0 0 1 0 0  0 0 0 1 0"/>
		</filter>
	</defs>
	<mask maskUnits="userSpaceOnUse" x="0" y="0" width="24" height="24" id="mask-2">
		<g class="st0">
			<path id="path-1" class="st1" d="M19,4h-1V2h-2v2H8V2H6v2H5C3.9,4,3,4.9,3,6l0,14c0,1.1,0.9,2,2,2h14c1.1,0,2-0.9,2-2V6
				C21,4.9,20.1,4,19,4z M19,20H5V10h14V20z M19,8H5V6h14V8z M12,13h5v5h-5V13z"/>
		</g>
	</mask>
	<g id="_x2731_-_x2F_-Color-_x2F_-Icons-_x2F_-Black-_x2F_-Inactive" class="st2">
		<rect id="Rectangle" class="st3" width="24" height="24"/>
	</g>
</g>
</svg>
